<?xml version="1.0" standalone="no"?><!DOCTYPE svg PUBLIC "-//W3C//DTD SVG 1.1//EN" "http://www.w3.org/Graphics/SVG/1.1/DTD/svg11.dtd"><svg t="1633061100584" class="icon" viewBox="0 0 1024 1024" version="1.1" xmlns="http://www.w3.org/2000/svg" p-id="8997" xmlns:xlink="http://www.w3.org/1999/xlink" width="16" height="16"><defs><style type="text/css"></style></defs><path d="M914.96 570.08c22.64-10.28 38.42-33.06 38.42-59.5 0-36.02-29.3-65.34-65.32-65.34H682.28c-17.28 0-31.34-14.2-31.34-31.66 0-8.66 3.44-16.7 9.68-22.66 0.04-0.02 0.06-0.08 0.1-0.12 0.04-0.02 0.08-0.04 0.1-0.08l100.84-101.88c12.34-12.34 19.14-28.74 19.14-46.2 0-17.44-6.8-33.86-19.14-46.18-25.48-25.48-66.94-25.48-92.4 0L412.48 453.22c-10.1-7.28-22.2-11.22-34.92-11.22-2.82 0-5.6 0.2-8.34 0.58v-12.1c0-5.52-4.46-10-10-10H80.62c-5.52 0-10 4.48-10 10v495.66c0 5.52 4.48 10 10 10h278.6c5.54 0 10-4.48 10-10v-16.64c2.74 0.38 5.52 0.58 8.34 0.58 24.76 0 46.06-15.08 55.22-36.54 14.82 20.78 39.12 34.38 66.54 34.38h331.2c0.22 0 0.4-0.06 0.62-0.06 34.9-1.28 62.92-30.06 62.92-65.28 0-19.5-8.6-37.02-22.2-49 25.5-8.92 43.84-33.18 43.84-61.68 0-19.24-8.36-36.56-21.64-48.52 26.84-8.58 46.86-33.56 46.86-62.14 0-20.46-10.26-39.08-25.96-51.16zM349.22 916.14H90.62V440.48h258.6v475.66z m68.34-66.06c0 22.06-17.94 40-40 40-2.84 0-5.62-0.32-8.34-0.9V462.9c2.72-0.56 5.5-0.9 8.34-0.9 10.76 0 20.84 4.2 28.4 11.86 7.48 7.5 11.6 17.5 11.6 28.14v348.08z m456.24-183.52h-62.72c-5.52 0-10 4.48-10 10s4.48 10 10 10h39.14c0.06 0 0.1 0.02 0.14 0.02 25 0 45.34 20.34 45.34 45.32 0 25-20.34 45.34-45.34 45.34h-62.7c-5.52 0-10 4.46-10 10 0 5.52 4.48 10 10 10h40.86c0.06 0 0.14 0.02 0.2 0.02 25 0 45.34 20.32 45.34 45.32s-20.34 45.34-45.34 45.34h-329.4c-34.04 0-61.74-27.7-61.74-61.74 0-0.1-0.02-0.2-0.02-0.28V502c0-12.58-3.86-24.56-10.98-34.58L683.4 210.6c17.68-17.68 46.44-17.68 64.12 0 8.56 8.56 13.28 19.94 13.28 32.04 0 12.12-4.72 23.5-13.32 32.1l-100.86 101.92c-0.02 0-0.02 0.02-0.04 0.02-10.08 9.74-15.64 22.84-15.64 36.9 0 28.5 23.02 51.66 51.34 51.66h205.78c24.98 0 45.32 20.34 45.32 45.34s-20.34 45.32-45.32 45.32h-60.68c-5.52 0-10 4.48-10 10 0 5.54 4.48 10 10 10h46.34c0.02 0 0.06 0.02 0.08 0.02 25.54 0 47.12 20.74 47.12 45.32 0 24.56-21.58 45.32-47.12 45.32z" fill="#23130D" p-id="8998"></path><path d="M920.92 621.24c0 24.56-21.58 45.32-47.12 45.32h-62.72c-5.52 0-10 4.48-10 10s4.48 10 10 10h39.14c0.06 0 0.1 0.02 0.14 0.02 25 0 45.34 20.34 45.34 45.32 0 25-20.34 45.34-45.34 45.34h-62.7c-5.52 0-10 4.46-10 10 0 5.52 4.48 10 10 10h40.86c0.06 0 0.14 0.02 0.2 0.02 25 0 45.34 20.32 45.34 45.32s-20.34 45.34-45.34 45.34h-329.4c-34.04 0-61.74-27.7-61.74-61.74 0-0.1-0.02-0.2-0.02-0.28V502c0-12.58-3.86-24.56-10.98-34.58L683.4 210.6c17.68-17.68 46.44-17.68 64.12 0 8.56 8.56 13.28 19.94 13.28 32.04 0 12.12-4.72 23.5-13.32 32.1l-100.86 101.92c-0.02 0-0.02 0.02-0.04 0.02-10.08 9.74-15.64 22.84-15.64 36.9 0 28.5 23.02 51.66 51.34 51.66h205.78c24.98 0 45.32 20.34 45.32 45.34s-20.34 45.32-45.32 45.32h-60.68c-5.52 0-10 4.48-10 10 0 5.54 4.48 10 10 10h46.34c0.02 0 0.06 0.02 0.08 0.02 25.54 0 47.12 20.74 47.12 45.32z" fill="#F8D3C9" p-id="8999"></path><path d="M745.9 210.6L489.08 467.42c7.12 10.02 10.98 22 10.98 34.58v323.9c0 0.08 0.02 0.18 0.02 0.28 0 34.04 27.7 61.74 61.74 61.74h-62.5c-34.04 0-61.74-27.7-61.74-61.74 0-0.1-0.02-0.2-0.02-0.28V502c0-12.58-3.86-24.56-10.98-34.58L683.4 210.6c17.42-17.42 45.58-17.68 63.32-0.78-0.28 0.24-0.56 0.52-0.82 0.78z" fill="#23130D" opacity=".2" p-id="9000"></path><path d="M417.56 502v348.08c0 22.06-17.94 40-40 40-2.84 0-5.62-0.32-8.34-0.9V462.9c2.72-0.56 5.5-0.9 8.34-0.9 10.76 0 20.84 4.2 28.4 11.86 7.48 7.5 11.6 17.5 11.6 28.14z" fill="#E1E1E5" p-id="9001"></path><path d="M393.4 465.26v421.56a39.852 39.852 0 0 1-15.84 3.26c-2.84 0-5.62-0.32-8.34-0.9V462.9c2.72-0.56 5.5-0.9 8.34-0.9 5.54 0 10.92 1.12 15.84 3.26z" fill="#23130D" opacity=".2" p-id="9002"></path><path d="M90.62 440.48h258.6v475.66H90.62z" fill="#3594BF" p-id="9003"></path><path d="M90.62 440.48h258.6v40.52H90.62z" fill="#FFFFFF" opacity=".4" p-id="9004"></path><path d="M90.62 875.62h258.6v40.52H90.62z" fill="#23130D" opacity=".2" p-id="9005"></path><path d="M757.368 147.468a9.996 9.996 0 0 0 13.288-4.836l14.756-31.636a10 10 0 0 0-18.126-8.454l-14.756 31.636a10.002 10.002 0 0 0 4.838 13.29zM673.896 134.174a10.006 10.006 0 0 0 12.246 7.074 10 10 0 0 0 7.074-12.246l-9.03-33.73a10 10 0 1 0-19.32 5.172l9.03 33.73zM585.052 164.676l28.608 20.03a9.992 9.992 0 0 0 13.928-2.456 9.998 9.998 0 0 0-2.456-13.926l-28.608-20.03a10 10 0 0 0-11.472 16.382zM773.134 327.796a10 10 0 0 0-2.456 13.926l20.026 28.6a9.988 9.988 0 0 0 13.928 2.456 10 10 0 0 0 2.456-13.926l-20.026-28.6a10.002 10.002 0 0 0-13.928-2.456zM816.986 203.796c1.414 0 2.852-0.3 4.218-0.938l31.644-14.748a10.004 10.004 0 0 0 4.84-13.29 9.994 9.994 0 0 0-13.29-4.838l-31.644 14.748a10.004 10.004 0 0 0 4.232 19.066zM815.444 270.55a10 10 0 0 0 7.074 12.246l33.724 9.026a10.006 10.006 0 0 0 12.246-7.076 10 10 0 0 0-7.074-12.246l-33.724-9.026a10.002 10.002 0 0 0-12.246 7.076z" fill="#23130D" p-id="9006"></path></svg>